<?xml version="1.0" encoding="UTF-8"?>
<svg id="Camada_1" data-name="Camada 1" xmlns="http://www.w3.org/2000/svg" version="1.1" viewBox="0 0 1990.18 329.43">
  <defs>
    <style>
      .cls-1 {
        fill: #00a6fb;
      }

      .cls-1, .cls-2 {
        stroke-width: 0px;
      }

      .cls-2 {
        fill: #fff;
      }
    </style>
  </defs>
  <g>
    <path class="cls-2" d="M439.09,167.57c0-31.68,21.74-56.37,55.44-56.37,17.7,0,33.23,7.14,45.97,21.59l-16.3,17.09c-7.3-9.16-17.08-14.29-27.95-14.29-17.86,0-29.82,13.2-29.82,31.99s11.96,31.99,30.28,31.99c12.27,0,22.21-5.44,29.82-15.07l16.3,17.08c-12.11,15.53-29.66,22.36-47.83,22.36-33.85,0-55.91-23.91-55.91-56.37Z"/>
    <path class="cls-2" d="M577.23,200.34h49.7v21.59h-75.78v-108.71h73.92v21.27h-47.83v22.05h43.79v20.97h-43.79v22.83Z"/>
    <path class="cls-2" d="M702.93,221.93l-20.5-35.1h-14.44v35.1h-26.71v-108.71h45.66c25.16,0,41.62,14.75,41.62,36.81,0,15.53-7.45,27.02-20.65,32.77l24.07,39.13h-29.04ZM684.29,135.11h-16.77v31.52h16.77c11.34,0,17.55-5.74,17.55-15.68s-6.21-15.84-17.55-15.84Z"/>
    <path class="cls-2" d="M823.99,113.22v24.54h-31.68v84.17h-26.72v-84.17h-31.52v-24.54h89.92Z"/>
    <path class="cls-2" d="M831.92,221.93v-108.71h26.71v108.71h-26.71Z"/>
    <path class="cls-2" d="M920.19,113.22c34.01,0,56.06,21.43,56.06,54.35s-22.05,54.35-56.06,54.35h-43.48v-108.71h43.48ZM917.39,197.7c20.35,0,31.99-11.02,31.99-30.13s-11.65-30.13-31.99-30.13h-13.98v60.26h13.98Z"/>
    <path class="cls-2" d="M1058.4,221.93l-6.52-17.7h-43.95l-6.37,17.7h-27.95l42.09-108.71h28.57l41.62,108.71h-27.49ZM1013.51,102.81l-11.18-7.61c4.35-10.25,10.56-14.91,17.24-14.91,8.54,0,12.58,6.99,19.41,6.99,2.95,0,5.43-1.87,7.92-6.21l11.02,7.76c-4.35,10.09-10.56,14.75-17.24,14.75-8.7,0-12.58-6.99-19.41-6.99-2.95,0-5.43,1.86-7.76,6.21ZM1030.13,140.39l-16.46,44.57h32.61l-16.15-44.57Z"/>
    <path class="cls-2" d="M1083.24,167.57c0-32.61,24.54-56.37,57.93-56.37s57.93,23.76,57.93,56.37-24.23,56.37-57.93,56.37-57.93-23.76-57.93-56.37ZM1171.91,167.57c0-18.79-12.73-31.99-30.75-31.99s-30.59,13.2-30.59,31.99,12.73,31.99,30.59,31.99,30.75-13.2,30.75-31.99Z"/>
    <path class="cls-2" d="M1313.69,113.22h25.62v108.71h-21.74l-48.3-64.14v64.14h-25.62v-108.71h21.59l48.45,64.29v-64.29Z"/>
    <path class="cls-2" d="M1383.72,200.34h49.7v21.59h-75.78v-108.71h73.92v21.27h-47.83v22.05h43.79v20.97h-43.79v22.83Z"/>
    <path class="cls-2" d="M1492.82,159.81h53.11v46.59c-12.27,11.65-29.66,17.55-47.37,17.55-35.1,0-58.55-23.14-58.55-56.37s23.45-56.37,57.31-56.37c16.46,0,31.52,5.59,43.79,16.77l-14.29,17.55c-7.46-7.15-18.02-10.87-28.26-10.87-19.1,0-31.99,13.66-31.99,32.92s12.74,32.92,33.23,32.92c8.24,0,16.46-2.02,23.61-6.21v-14.13h-30.59v-20.34Z"/>
    <path class="cls-2" d="M1633.61,221.93l-6.52-17.7h-43.95l-6.37,17.7h-27.96l42.09-108.71h28.58l41.62,108.71h-27.49ZM1605.35,140.39l-16.46,44.57h32.61l-16.15-44.57Z"/>
    <path class="cls-2" d="M1738.87,113.22v24.54h-31.68v84.17h-26.72v-84.17h-31.52v-24.54h89.92Z"/>
    <path class="cls-2" d="M1746.8,221.93v-108.71h26.71v108.71h-26.71Z"/>
    <path class="cls-2" d="M1860.91,113.22h28.26l-39.91,108.71h-28.27l-40.53-108.71h28.57l15.06,42.86,11.03,34.16,10.87-34.16,14.91-42.86Z"/>
    <path class="cls-2" d="M1962.69,221.93l-6.52-17.7h-43.95l-6.37,17.7h-27.96l42.09-108.71h28.57l41.62,108.71h-27.49ZM1934.42,140.39l-16.46,44.57h32.61l-16.15-44.57Z"/>
  </g>
  <g>
    <path class="cls-1" d="M65.88,263.55h65.91v65.88h-65.91c-36.4,0-65.88-29.48-65.88-65.88V65.88C0,47.68,7.36,31.22,19.29,19.29S47.68,0,65.88,0h65.91v65.88h-65.91v197.67Z"/>
    <path class="cls-1" d="M329.47,65.88v65.88h-65.91v-65.88h-65.88V0h65.88c18.2,0,34.7,7.36,46.62,19.29,11.93,11.93,19.29,28.39,19.29,46.59Z"/>
    <path class="cls-1" d="M329.47,197.67v65.88c0,18.2-7.36,34.66-19.29,46.59-11.93,11.93-28.42,19.29-46.62,19.29h-65.88v-65.88h65.88v-65.88h65.91Z"/>
  </g>
</svg>